<svg width="324" height="314" viewBox="0 0 324 314" fill="none" xmlns="http://www.w3.org/2000/svg">
<ellipse cx="1.7234" cy="2.20918" rx="1.7234" ry="2.20918" fill="#2D86D8"/>
<ellipse cx="20.6809" cy="2.20918" rx="1.7234" ry="2.20918" fill="#2D86D8"/>
<ellipse cx="39.6383" cy="2.20918" rx="1.7234" ry="2.20918" fill="#2D86D8"/>
<ellipse cx="58.5957" cy="2.20918" rx="1.7234" ry="2.20918" fill="#2D86D8"/>
<ellipse cx="77.5532" cy="2.20918" rx="1.7234" ry="2.20918" fill="#2D86D8"/>
<ellipse cx="96.5106" cy="2.20918" rx="1.7234" ry="2.20918" fill="#2D86D8"/>
<ellipse cx="1.72337" cy="90.5764" rx="1.7234" ry="2.20918" fill="#2D86D8"/>
<ellipse cx="20.6808" cy="90.5764" rx="1.7234" ry="2.20918" fill="#2D86D8"/>
<ellipse cx="39.6383" cy="90.5764" rx="1.7234" ry="2.20918" fill="#2D86D8"/>
<ellipse cx="58.5957" cy="90.5764" rx="1.7234" ry="2.20918" fill="#2D86D8"/>
<ellipse cx="77.5532" cy="90.5764" rx="1.7234" ry="2.20918" fill="#2D86D8"/>
<ellipse cx="96.5106" cy="90.5764" rx="1.7234" ry="2.20918" fill="#2D86D8"/>
<ellipse cx="1.72337" cy="24.301" rx="1.7234" ry="2.20918" fill="#2D86D8"/>
<ellipse cx="20.6808" cy="24.301" rx="1.7234" ry="2.20918" fill="#2D86D8"/>
<ellipse cx="39.6383" cy="24.301" rx="1.7234" ry="2.20918" fill="#2D86D8"/>
<ellipse cx="58.5957" cy="24.301" rx="1.7234" ry="2.20918" fill="#2D86D8"/>
<ellipse cx="77.5532" cy="24.301" rx="1.7234" ry="2.20918" fill="#2D86D8"/>
<ellipse cx="96.5106" cy="24.301" rx="1.7234" ry="2.20918" fill="#2D86D8"/>
<ellipse cx="1.72337" cy="46.3928" rx="1.7234" ry="2.20918" fill="#2D86D8"/>
<ellipse cx="20.6808" cy="46.3928" rx="1.7234" ry="2.20918" fill="#2D86D8"/>
<ellipse cx="39.6383" cy="46.3928" rx="1.7234" ry="2.20918" fill="#2D86D8"/>
<ellipse cx="58.5957" cy="46.3928" rx="1.7234" ry="2.20918" fill="#2D86D8"/>
<ellipse cx="77.5532" cy="46.3928" rx="1.7234" ry="2.20918" fill="#2D86D8"/>
<ellipse cx="96.5106" cy="46.3928" rx="1.7234" ry="2.20918" fill="#2D86D8"/>
<ellipse cx="1.72337" cy="68.4846" rx="1.7234" ry="2.20918" fill="#2D86D8"/>
<ellipse cx="20.6808" cy="68.4846" rx="1.7234" ry="2.20918" fill="#2D86D8"/>
<ellipse cx="39.6383" cy="68.4846" rx="1.7234" ry="2.20918" fill="#2D86D8"/>
<ellipse cx="58.5957" cy="68.4846" rx="1.7234" ry="2.20918" fill="#2D86D8"/>
<ellipse cx="77.5532" cy="68.4846" rx="1.7234" ry="2.20918" fill="#2D86D8"/>
<ellipse cx="96.5106" cy="68.4846" rx="1.7234" ry="2.20918" fill="#2D86D8"/>
<ellipse cx="113.745" cy="2.20918" rx="1.7234" ry="2.20918" fill="#2D86D8"/>
<ellipse cx="132.702" cy="2.20918" rx="1.7234" ry="2.20918" fill="#2D86D8"/>
<ellipse cx="151.66" cy="2.20918" rx="1.7234" ry="2.20918" fill="#2D86D8"/>
<ellipse cx="170.617" cy="2.20918" rx="1.7234" ry="2.20918" fill="#2D86D8"/>
<ellipse cx="189.574" cy="2.20918" rx="1.7234" ry="2.20918" fill="#2D86D8"/>
<ellipse cx="208.532" cy="2.20918" rx="1.7234" ry="2.20918" fill="#2D86D8"/>
<ellipse cx="113.745" cy="90.5764" rx="1.7234" ry="2.20918" fill="#2D86D8"/>
<ellipse cx="132.702" cy="90.5764" rx="1.7234" ry="2.20918" fill="#2D86D8"/>
<ellipse cx="151.66" cy="90.5764" rx="1.7234" ry="2.20918" fill="#2D86D8"/>
<ellipse cx="170.617" cy="90.5764" rx="1.7234" ry="2.20918" fill="#2D86D8"/>
<ellipse cx="189.574" cy="90.5764" rx="1.7234" ry="2.20918" fill="#2D86D8"/>
<ellipse cx="208.532" cy="90.5764" rx="1.7234" ry="2.20918" fill="#2D86D8"/>
<ellipse cx="113.745" cy="24.301" rx="1.7234" ry="2.20918" fill="#2D86D8"/>
<ellipse cx="132.702" cy="24.301" rx="1.7234" ry="2.20918" fill="#2D86D8"/>
<ellipse cx="151.66" cy="24.301" rx="1.7234" ry="2.20918" fill="#2D86D8"/>
<ellipse cx="170.617" cy="24.301" rx="1.7234" ry="2.20918" fill="#2D86D8"/>
<ellipse cx="189.574" cy="24.301" rx="1.7234" ry="2.20918" fill="#2D86D8"/>
<ellipse cx="208.532" cy="24.301" rx="1.7234" ry="2.20918" fill="#2D86D8"/>
<ellipse cx="113.745" cy="46.3928" rx="1.7234" ry="2.20918" fill="#2D86D8"/>
<ellipse cx="132.702" cy="46.3928" rx="1.7234" ry="2.20918" fill="#2D86D8"/>
<ellipse cx="151.66" cy="46.3928" rx="1.7234" ry="2.20918" fill="#2D86D8"/>
<ellipse cx="170.617" cy="46.3928" rx="1.7234" ry="2.20918" fill="#2D86D8"/>
<ellipse cx="189.574" cy="46.3928" rx="1.7234" ry="2.20918" fill="#2D86D8"/>
<ellipse cx="208.532" cy="46.3928" rx="1.7234" ry="2.20918" fill="#2D86D8"/>
<ellipse cx="113.745" cy="68.4846" rx="1.7234" ry="2.20918" fill="#2D86D8"/>
<ellipse cx="132.702" cy="68.4846" rx="1.7234" ry="2.20918" fill="#2D86D8"/>
<ellipse cx="151.66" cy="68.4846" rx="1.7234" ry="2.20918" fill="#2D86D8"/>
<ellipse cx="170.617" cy="68.4846" rx="1.7234" ry="2.20918" fill="#2D86D8"/>
<ellipse cx="189.574" cy="68.4846" rx="1.7234" ry="2.20918" fill="#2D86D8"/>
<ellipse cx="208.532" cy="68.4846" rx="1.7234" ry="2.20918" fill="#2D86D8"/>
<ellipse cx="1.72337" cy="111.564" rx="1.7234" ry="2.20918" fill="#2D86D8"/>
<ellipse cx="20.6808" cy="111.564" rx="1.7234" ry="2.20918" fill="#2D86D8"/>
<ellipse cx="39.6383" cy="111.564" rx="1.7234" ry="2.20918" fill="#2D86D8"/>
<ellipse cx="58.5957" cy="111.564" rx="1.7234" ry="2.20918" fill="#2D86D8"/>
<ellipse cx="77.5532" cy="111.564" rx="1.7234" ry="2.20918" fill="#2D86D8"/>
<ellipse cx="96.5106" cy="111.564" rx="1.7234" ry="2.20918" fill="#2D86D8"/>
<ellipse cx="1.72337" cy="199.931" rx="1.7234" ry="2.20918" fill="#2D86D8"/>
<ellipse cx="20.6808" cy="199.931" rx="1.7234" ry="2.20918" fill="#2D86D8"/>
<ellipse cx="39.6383" cy="199.931" rx="1.7234" ry="2.20918" fill="#2D86D8"/>
<ellipse cx="58.5957" cy="199.931" rx="1.7234" ry="2.20918" fill="#2D86D8"/>
<ellipse cx="77.5532" cy="199.931" rx="1.7234" ry="2.20918" fill="#2D86D8"/>
<ellipse cx="96.5106" cy="199.931" rx="1.7234" ry="2.20918" fill="#2D86D8"/>
<ellipse cx="1.72337" cy="133.656" rx="1.7234" ry="2.20918" fill="#2D86D8"/>
<ellipse cx="20.6808" cy="133.656" rx="1.7234" ry="2.20918" fill="#2D86D8"/>
<ellipse cx="39.6383" cy="133.656" rx="1.7234" ry="2.20918" fill="#2D86D8"/>
<ellipse cx="58.5957" cy="133.656" rx="1.7234" ry="2.20918" fill="#2D86D8"/>
<ellipse cx="77.5532" cy="133.656" rx="1.7234" ry="2.20918" fill="#2D86D8"/>
<ellipse cx="96.5106" cy="133.656" rx="1.7234" ry="2.20918" fill="#2D86D8"/>
<ellipse cx="1.72337" cy="155.748" rx="1.7234" ry="2.20918" fill="#2D86D8"/>
<ellipse cx="20.6808" cy="155.748" rx="1.7234" ry="2.20918" fill="#2D86D8"/>
<ellipse cx="39.6383" cy="155.748" rx="1.7234" ry="2.20918" fill="#2D86D8"/>
<ellipse cx="58.5957" cy="155.748" rx="1.7234" ry="2.20918" fill="#2D86D8"/>
<ellipse cx="77.5532" cy="155.748" rx="1.7234" ry="2.20918" fill="#2D86D8"/>
<ellipse cx="96.5106" cy="155.748" rx="1.7234" ry="2.20918" fill="#2D86D8"/>
<ellipse cx="1.72337" cy="177.84" rx="1.7234" ry="2.20918" fill="#2D86D8"/>
<ellipse cx="20.6808" cy="177.84" rx="1.7234" ry="2.20918" fill="#2D86D8"/>
<ellipse cx="39.6383" cy="177.84" rx="1.7234" ry="2.20918" fill="#2D86D8"/>
<ellipse cx="58.5957" cy="177.84" rx="1.7234" ry="2.20918" fill="#2D86D8"/>
<ellipse cx="77.5532" cy="177.84" rx="1.7234" ry="2.20918" fill="#2D86D8"/>
<ellipse cx="96.5106" cy="177.84" rx="1.7234" ry="2.20918" fill="#2D86D8"/>
<ellipse cx="1.72337" cy="220.918" rx="1.7234" ry="2.20918" fill="#2D86D8"/>
<ellipse cx="20.6808" cy="220.918" rx="1.7234" ry="2.20918" fill="#2D86D8"/>
<ellipse cx="39.6383" cy="220.918" rx="1.7234" ry="2.20918" fill="#2D86D8"/>
<ellipse cx="58.5957" cy="220.918" rx="1.7234" ry="2.20918" fill="#2D86D8"/>
<ellipse cx="77.5532" cy="220.918" rx="1.7234" ry="2.20918" fill="#2D86D8"/>
<ellipse cx="96.5106" cy="220.918" rx="1.7234" ry="2.20918" fill="#2D86D8"/>
<ellipse cx="1.72337" cy="309.286" rx="1.7234" ry="2.20918" fill="#2D86D8"/>
<ellipse cx="20.6808" cy="309.286" rx="1.7234" ry="2.20918" fill="#2D86D8"/>
<ellipse cx="39.6383" cy="309.286" rx="1.7234" ry="2.20918" fill="#2D86D8"/>
<ellipse cx="58.5957" cy="309.286" rx="1.7234" ry="2.20918" fill="#2D86D8"/>
<ellipse cx="77.5532" cy="309.286" rx="1.7234" ry="2.20918" fill="#2D86D8"/>
<ellipse cx="96.5106" cy="309.286" rx="1.7234" ry="2.20918" fill="#2D86D8"/>
<ellipse cx="1.72337" cy="243.01" rx="1.7234" ry="2.20918" fill="#2D86D8"/>
<ellipse cx="20.6808" cy="243.01" rx="1.7234" ry="2.20918" fill="#2D86D8"/>
<ellipse cx="39.6383" cy="243.01" rx="1.7234" ry="2.20918" fill="#2D86D8"/>
<ellipse cx="58.5957" cy="243.01" rx="1.7234" ry="2.20918" fill="#2D86D8"/>
<ellipse cx="77.5532" cy="243.01" rx="1.7234" ry="2.20918" fill="#2D86D8"/>
<ellipse cx="96.5106" cy="243.01" rx="1.7234" ry="2.20918" fill="#2D86D8"/>
<ellipse cx="1.72337" cy="265.102" rx="1.7234" ry="2.20918" fill="#2D86D8"/>
<ellipse cx="20.6808" cy="265.102" rx="1.7234" ry="2.20918" fill="#2D86D8"/>
<ellipse cx="39.6383" cy="265.102" rx="1.7234" ry="2.20918" fill="#2D86D8"/>
<ellipse cx="58.5957" cy="265.102" rx="1.7234" ry="2.20918" fill="#2D86D8"/>
<ellipse cx="77.5532" cy="265.102" rx="1.7234" ry="2.20918" fill="#2D86D8"/>
<ellipse cx="96.5106" cy="265.102" rx="1.7234" ry="2.20918" fill="#2D86D8"/>
<ellipse cx="1.72337" cy="287.194" rx="1.7234" ry="2.20918" fill="#2D86D8"/>
<ellipse cx="20.6808" cy="287.194" rx="1.7234" ry="2.20918" fill="#2D86D8"/>
<ellipse cx="39.6383" cy="287.194" rx="1.7234" ry="2.20918" fill="#2D86D8"/>
<ellipse cx="58.5957" cy="287.194" rx="1.7234" ry="2.20918" fill="#2D86D8"/>
<ellipse cx="77.5532" cy="287.194" rx="1.7234" ry="2.20918" fill="#2D86D8"/>
<ellipse cx="96.5106" cy="287.194" rx="1.7234" ry="2.20918" fill="#2D86D8"/>
<ellipse cx="227.489" cy="4.41817" rx="1.7234" ry="2.20918" fill="#2D86D8"/>
<ellipse cx="246.447" cy="4.41817" rx="1.7234" ry="2.20918" fill="#2D86D8"/>
<ellipse cx="265.404" cy="4.41817" rx="1.7234" ry="2.20918" fill="#2D86D8"/>
<ellipse cx="284.362" cy="4.41817" rx="1.7234" ry="2.20918" fill="#2D86D8"/>
<ellipse cx="303.319" cy="4.41817" rx="1.7234" ry="2.20918" fill="#2D86D8"/>
<ellipse cx="322.277" cy="4.41817" rx="1.7234" ry="2.20918" fill="#2D86D8"/>
<ellipse cx="227.489" cy="92.7858" rx="1.7234" ry="2.20918" fill="#2D86D8"/>
<ellipse cx="246.447" cy="92.7858" rx="1.7234" ry="2.20918" fill="#2D86D8"/>
<ellipse cx="265.404" cy="92.7858" rx="1.7234" ry="2.20918" fill="#2D86D8"/>
<ellipse cx="284.362" cy="92.7858" rx="1.7234" ry="2.20918" fill="#2D86D8"/>
<ellipse cx="303.319" cy="92.7858" rx="1.7234" ry="2.20918" fill="#2D86D8"/>
<ellipse cx="322.277" cy="92.7858" rx="1.7234" ry="2.20918" fill="#2D86D8"/>
<ellipse cx="227.489" cy="26.5102" rx="1.7234" ry="2.20918" fill="#2D86D8"/>
<ellipse cx="246.447" cy="26.5102" rx="1.7234" ry="2.20918" fill="#2D86D8"/>
<ellipse cx="265.404" cy="26.5102" rx="1.7234" ry="2.20918" fill="#2D86D8"/>
<ellipse cx="284.362" cy="26.5102" rx="1.7234" ry="2.20918" fill="#2D86D8"/>
<ellipse cx="303.319" cy="26.5102" rx="1.7234" ry="2.20918" fill="#2D86D8"/>
<ellipse cx="322.277" cy="26.5102" rx="1.7234" ry="2.20918" fill="#2D86D8"/>
<ellipse cx="227.489" cy="48.602" rx="1.7234" ry="2.20918" fill="#2D86D8"/>
<ellipse cx="246.447" cy="48.602" rx="1.7234" ry="2.20918" fill="#2D86D8"/>
<ellipse cx="265.404" cy="48.602" rx="1.7234" ry="2.20918" fill="#2D86D8"/>
<ellipse cx="284.362" cy="48.602" rx="1.7234" ry="2.20918" fill="#2D86D8"/>
<ellipse cx="303.319" cy="48.602" rx="1.7234" ry="2.20918" fill="#2D86D8"/>
<ellipse cx="322.277" cy="48.602" rx="1.7234" ry="2.20918" fill="#2D86D8"/>
<ellipse cx="227.489" cy="70.694" rx="1.7234" ry="2.20918" fill="#2D86D8"/>
<ellipse cx="246.447" cy="70.694" rx="1.7234" ry="2.20918" fill="#2D86D8"/>
<ellipse cx="265.404" cy="70.694" rx="1.7234" ry="2.20918" fill="#2D86D8"/>
<ellipse cx="284.362" cy="70.694" rx="1.7234" ry="2.20918" fill="#2D86D8"/>
<ellipse cx="303.319" cy="70.694" rx="1.7234" ry="2.20918" fill="#2D86D8"/>
<ellipse cx="322.277" cy="70.694" rx="1.7234" ry="2.20918" fill="#2D86D8"/>
<ellipse cx="113.745" cy="113.773" rx="1.7234" ry="2.20918" fill="#2D86D8"/>
<ellipse cx="132.702" cy="113.773" rx="1.7234" ry="2.20918" fill="#2D86D8"/>
<ellipse cx="151.66" cy="113.773" rx="1.7234" ry="2.20918" fill="#2D86D8"/>
<ellipse cx="170.617" cy="113.773" rx="1.7234" ry="2.20918" fill="#2D86D8"/>
<ellipse cx="189.574" cy="113.773" rx="1.7234" ry="2.20918" fill="#2D86D8"/>
<ellipse cx="208.532" cy="113.773" rx="1.7234" ry="2.20918" fill="#2D86D8"/>
<ellipse cx="113.745" cy="202.14" rx="1.7234" ry="2.20918" fill="#2D86D8"/>
<ellipse cx="132.702" cy="202.14" rx="1.7234" ry="2.20918" fill="#2D86D8"/>
<ellipse cx="151.66" cy="202.14" rx="1.7234" ry="2.20918" fill="#2D86D8"/>
<ellipse cx="170.617" cy="202.14" rx="1.7234" ry="2.20918" fill="#2D86D8"/>
<ellipse cx="189.574" cy="202.14" rx="1.7234" ry="2.20918" fill="#2D86D8"/>
<ellipse cx="208.532" cy="202.14" rx="1.7234" ry="2.20918" fill="#2D86D8"/>
<ellipse cx="113.745" cy="135.865" rx="1.7234" ry="2.20918" fill="#2D86D8"/>
<ellipse cx="132.702" cy="135.865" rx="1.7234" ry="2.20918" fill="#2D86D8"/>
<ellipse cx="151.66" cy="135.865" rx="1.7234" ry="2.20918" fill="#2D86D8"/>
<ellipse cx="170.617" cy="135.865" rx="1.7234" ry="2.20918" fill="#2D86D8"/>
<ellipse cx="189.574" cy="135.865" rx="1.7234" ry="2.20918" fill="#2D86D8"/>
<ellipse cx="208.532" cy="135.865" rx="1.7234" ry="2.20918" fill="#2D86D8"/>
<ellipse cx="113.745" cy="157.957" rx="1.7234" ry="2.20918" fill="#2D86D8"/>
<ellipse cx="132.702" cy="157.957" rx="1.7234" ry="2.20918" fill="#2D86D8"/>
<ellipse cx="151.66" cy="157.957" rx="1.7234" ry="2.20918" fill="#2D86D8"/>
<ellipse cx="170.617" cy="157.957" rx="1.7234" ry="2.20918" fill="#2D86D8"/>
<ellipse cx="189.574" cy="157.957" rx="1.7234" ry="2.20918" fill="#2D86D8"/>
<ellipse cx="208.532" cy="157.957" rx="1.7234" ry="2.20918" fill="#2D86D8"/>
<ellipse cx="113.745" cy="180.049" rx="1.7234" ry="2.20918" fill="#2D86D8"/>
<ellipse cx="132.702" cy="180.049" rx="1.7234" ry="2.20918" fill="#2D86D8"/>
<ellipse cx="151.66" cy="180.049" rx="1.7234" ry="2.20918" fill="#2D86D8"/>
<ellipse cx="170.617" cy="180.049" rx="1.7234" ry="2.20918" fill="#2D86D8"/>
<ellipse cx="189.574" cy="180.049" rx="1.7234" ry="2.20918" fill="#2D86D8"/>
<ellipse cx="208.532" cy="180.049" rx="1.7234" ry="2.20918" fill="#2D86D8"/>
<ellipse cx="227.489" cy="115.982" rx="1.7234" ry="2.20918" fill="#2D86D8"/>
<ellipse cx="246.447" cy="115.982" rx="1.7234" ry="2.20918" fill="#2D86D8"/>
<ellipse cx="265.404" cy="115.982" rx="1.7234" ry="2.20918" fill="#2D86D8"/>
<ellipse cx="284.362" cy="115.982" rx="1.7234" ry="2.20918" fill="#2D86D8"/>
<ellipse cx="303.319" cy="115.982" rx="1.7234" ry="2.20918" fill="#2D86D8"/>
<ellipse cx="322.277" cy="115.982" rx="1.7234" ry="2.20918" fill="#2D86D8"/>
<ellipse cx="227.489" cy="204.35" rx="1.7234" ry="2.20918" fill="#2D86D8"/>
<ellipse cx="246.447" cy="204.35" rx="1.7234" ry="2.20918" fill="#2D86D8"/>
<ellipse cx="265.404" cy="204.35" rx="1.7234" ry="2.20918" fill="#2D86D8"/>
<ellipse cx="284.362" cy="204.35" rx="1.7234" ry="2.20918" fill="#2D86D8"/>
<ellipse cx="303.319" cy="204.35" rx="1.7234" ry="2.20918" fill="#2D86D8"/>
<ellipse cx="322.277" cy="204.35" rx="1.7234" ry="2.20918" fill="#2D86D8"/>
<ellipse cx="227.489" cy="138.074" rx="1.7234" ry="2.20918" fill="#2D86D8"/>
<ellipse cx="246.447" cy="138.074" rx="1.7234" ry="2.20918" fill="#2D86D8"/>
<ellipse cx="265.404" cy="138.074" rx="1.7234" ry="2.20918" fill="#2D86D8"/>
<ellipse cx="284.362" cy="138.074" rx="1.7234" ry="2.20918" fill="#2D86D8"/>
<ellipse cx="303.319" cy="138.074" rx="1.7234" ry="2.20918" fill="#2D86D8"/>
<ellipse cx="322.277" cy="138.074" rx="1.7234" ry="2.20918" fill="#2D86D8"/>
<ellipse cx="227.489" cy="160.166" rx="1.7234" ry="2.20918" fill="#2D86D8"/>
<ellipse cx="246.447" cy="160.166" rx="1.7234" ry="2.20918" fill="#2D86D8"/>
<ellipse cx="265.404" cy="160.166" rx="1.7234" ry="2.20918" fill="#2D86D8"/>
<ellipse cx="284.362" cy="160.166" rx="1.7234" ry="2.20918" fill="#2D86D8"/>
<ellipse cx="303.319" cy="160.166" rx="1.7234" ry="2.20918" fill="#2D86D8"/>
<ellipse cx="322.277" cy="160.166" rx="1.7234" ry="2.20918" fill="#2D86D8"/>
<ellipse cx="227.489" cy="182.258" rx="1.7234" ry="2.20918" fill="#2D86D8"/>
<ellipse cx="246.447" cy="182.258" rx="1.7234" ry="2.20918" fill="#2D86D8"/>
<ellipse cx="265.404" cy="182.258" rx="1.7234" ry="2.20918" fill="#2D86D8"/>
<ellipse cx="284.362" cy="182.258" rx="1.7234" ry="2.20918" fill="#2D86D8"/>
<ellipse cx="303.319" cy="182.258" rx="1.7234" ry="2.20918" fill="#2D86D8"/>
<ellipse cx="322.277" cy="182.258" rx="1.7234" ry="2.20918" fill="#2D86D8"/>
<ellipse cx="113.745" cy="220.918" rx="1.7234" ry="2.20918" fill="#2D86D8"/>
<ellipse cx="132.702" cy="220.918" rx="1.7234" ry="2.20918" fill="#2D86D8"/>
<ellipse cx="151.66" cy="220.918" rx="1.7234" ry="2.20918" fill="#2D86D8"/>
<ellipse cx="170.617" cy="220.918" rx="1.7234" ry="2.20918" fill="#2D86D8"/>
<ellipse cx="189.574" cy="220.918" rx="1.7234" ry="2.20918" fill="#2D86D8"/>
<ellipse cx="208.532" cy="220.918" rx="1.7234" ry="2.20918" fill="#2D86D8"/>
<ellipse cx="113.745" cy="309.286" rx="1.7234" ry="2.20918" fill="#2D86D8"/>
<ellipse cx="132.702" cy="309.286" rx="1.7234" ry="2.20918" fill="#2D86D8"/>
<ellipse cx="151.66" cy="309.286" rx="1.7234" ry="2.20918" fill="#2D86D8"/>
<ellipse cx="170.617" cy="309.286" rx="1.7234" ry="2.20918" fill="#2D86D8"/>
<ellipse cx="189.574" cy="309.286" rx="1.7234" ry="2.20918" fill="#2D86D8"/>
<ellipse cx="208.532" cy="309.286" rx="1.7234" ry="2.20918" fill="#2D86D8"/>
<ellipse cx="113.745" cy="243.01" rx="1.7234" ry="2.20918" fill="#2D86D8"/>
<ellipse cx="132.702" cy="243.01" rx="1.7234" ry="2.20918" fill="#2D86D8"/>
<ellipse cx="151.66" cy="243.01" rx="1.7234" ry="2.20918" fill="#2D86D8"/>
<ellipse cx="170.617" cy="243.01" rx="1.7234" ry="2.20918" fill="#2D86D8"/>
<ellipse cx="189.574" cy="243.01" rx="1.7234" ry="2.20918" fill="#2D86D8"/>
<ellipse cx="208.532" cy="243.01" rx="1.7234" ry="2.20918" fill="#2D86D8"/>
<ellipse cx="113.745" cy="265.102" rx="1.7234" ry="2.20918" fill="#2D86D8"/>
<ellipse cx="132.702" cy="265.102" rx="1.7234" ry="2.20918" fill="#2D86D8"/>
<ellipse cx="151.66" cy="265.102" rx="1.7234" ry="2.20918" fill="#2D86D8"/>
<ellipse cx="170.617" cy="265.102" rx="1.7234" ry="2.20918" fill="#2D86D8"/>
<ellipse cx="189.574" cy="265.102" rx="1.7234" ry="2.20918" fill="#2D86D8"/>
<ellipse cx="208.532" cy="265.102" rx="1.7234" ry="2.20918" fill="#2D86D8"/>
<ellipse cx="113.745" cy="287.194" rx="1.7234" ry="2.20918" fill="#2D86D8"/>
<ellipse cx="132.702" cy="287.194" rx="1.7234" ry="2.20918" fill="#2D86D8"/>
<ellipse cx="151.66" cy="287.194" rx="1.7234" ry="2.20918" fill="#2D86D8"/>
<ellipse cx="170.617" cy="287.194" rx="1.7234" ry="2.20918" fill="#2D86D8"/>
<ellipse cx="189.574" cy="287.194" rx="1.7234" ry="2.20918" fill="#2D86D8"/>
<ellipse cx="208.532" cy="287.194" rx="1.7234" ry="2.20918" fill="#2D86D8"/>
<ellipse cx="227.489" cy="223.128" rx="1.7234" ry="2.20918" fill="#2D86D8"/>
<ellipse cx="246.447" cy="223.128" rx="1.7234" ry="2.20918" fill="#2D86D8"/>
<ellipse cx="265.404" cy="223.128" rx="1.7234" ry="2.20918" fill="#2D86D8"/>
<ellipse cx="284.362" cy="223.128" rx="1.7234" ry="2.20918" fill="#2D86D8"/>
<ellipse cx="303.319" cy="223.128" rx="1.7234" ry="2.20918" fill="#2D86D8"/>
<ellipse cx="322.277" cy="223.128" rx="1.7234" ry="2.20918" fill="#2D86D8"/>
<ellipse cx="227.489" cy="311.495" rx="1.7234" ry="2.20918" fill="#2D86D8"/>
<ellipse cx="246.447" cy="311.495" rx="1.7234" ry="2.20918" fill="#2D86D8"/>
<ellipse cx="265.404" cy="311.495" rx="1.7234" ry="2.20918" fill="#2D86D8"/>
<ellipse cx="284.362" cy="311.495" rx="1.7234" ry="2.20918" fill="#2D86D8"/>
<ellipse cx="303.319" cy="311.495" rx="1.7234" ry="2.20918" fill="#2D86D8"/>
<ellipse cx="322.277" cy="311.495" rx="1.7234" ry="2.20918" fill="#2D86D8"/>
<ellipse cx="227.489" cy="245.219" rx="1.7234" ry="2.20918" fill="#2D86D8"/>
<ellipse cx="246.447" cy="245.219" rx="1.7234" ry="2.20918" fill="#2D86D8"/>
<ellipse cx="265.404" cy="245.219" rx="1.7234" ry="2.20918" fill="#2D86D8"/>
<ellipse cx="284.362" cy="245.219" rx="1.7234" ry="2.20918" fill="#2D86D8"/>
<ellipse cx="303.319" cy="245.219" rx="1.7234" ry="2.20918" fill="#2D86D8"/>
<ellipse cx="322.277" cy="245.219" rx="1.7234" ry="2.20918" fill="#2D86D8"/>
<ellipse cx="227.489" cy="267.311" rx="1.7234" ry="2.20918" fill="#2D86D8"/>
<ellipse cx="246.447" cy="267.311" rx="1.7234" ry="2.20918" fill="#2D86D8"/>
<ellipse cx="265.404" cy="267.311" rx="1.7234" ry="2.20918" fill="#2D86D8"/>
<ellipse cx="284.362" cy="267.311" rx="1.7234" ry="2.20918" fill="#2D86D8"/>
<ellipse cx="303.319" cy="267.311" rx="1.7234" ry="2.20918" fill="#2D86D8"/>
<ellipse cx="322.277" cy="267.311" rx="1.7234" ry="2.20918" fill="#2D86D8"/>
<ellipse cx="227.489" cy="289.403" rx="1.7234" ry="2.20918" fill="#2D86D8"/>
<ellipse cx="246.447" cy="289.403" rx="1.7234" ry="2.20918" fill="#2D86D8"/>
<ellipse cx="265.404" cy="289.403" rx="1.7234" ry="2.20918" fill="#2D86D8"/>
<ellipse cx="284.362" cy="289.403" rx="1.7234" ry="2.20918" fill="#2D86D8"/>
<ellipse cx="303.319" cy="289.403" rx="1.7234" ry="2.20918" fill="#2D86D8"/>
<ellipse cx="322.277" cy="289.403" rx="1.7234" ry="2.20918" fill="#2D86D8"/>
</svg>
