<svg width="346" height="387" viewBox="0 0 346 387" fill="none" xmlns="http://www.w3.org/2000/svg">
<ellipse cx="1.84043" cy="2.72327" rx="1.84043" ry="2.72327" fill="#2D86D8"/>
<ellipse cx="22.0851" cy="2.72327" rx="1.84043" ry="2.72327" fill="#2D86D8"/>
<ellipse cx="42.3297" cy="2.72327" rx="1.84043" ry="2.72327" fill="#2D86D8"/>
<ellipse cx="62.5746" cy="2.72327" rx="1.84043" ry="2.72327" fill="#2D86D8"/>
<ellipse cx="82.8192" cy="2.72327" rx="1.84043" ry="2.72327" fill="#2D86D8"/>
<ellipse cx="103.064" cy="2.72327" rx="1.84043" ry="2.72327" fill="#2D86D8"/>
<ellipse cx="1.84043" cy="111.654" rx="1.84043" ry="2.72327" fill="#2D86D8"/>
<ellipse cx="22.0851" cy="111.654" rx="1.84043" ry="2.72327" fill="#2D86D8"/>
<ellipse cx="42.3297" cy="111.654" rx="1.84043" ry="2.72327" fill="#2D86D8"/>
<ellipse cx="62.5746" cy="111.654" rx="1.84043" ry="2.72327" fill="#2D86D8"/>
<ellipse cx="82.8192" cy="111.654" rx="1.84043" ry="2.72327" fill="#2D86D8"/>
<ellipse cx="103.064" cy="111.654" rx="1.84043" ry="2.72327" fill="#2D86D8"/>
<ellipse cx="1.84043" cy="29.9559" rx="1.84043" ry="2.72327" fill="#2D86D8"/>
<ellipse cx="22.0851" cy="29.9559" rx="1.84043" ry="2.72327" fill="#2D86D8"/>
<ellipse cx="42.3297" cy="29.9559" rx="1.84043" ry="2.72327" fill="#2D86D8"/>
<ellipse cx="62.5746" cy="29.9559" rx="1.84043" ry="2.72327" fill="#2D86D8"/>
<ellipse cx="82.8192" cy="29.9559" rx="1.84043" ry="2.72327" fill="#2D86D8"/>
<ellipse cx="103.064" cy="29.9559" rx="1.84043" ry="2.72327" fill="#2D86D8"/>
<ellipse cx="1.84043" cy="57.1886" rx="1.84043" ry="2.72327" fill="#2D86D8"/>
<ellipse cx="22.0851" cy="57.1886" rx="1.84043" ry="2.72327" fill="#2D86D8"/>
<ellipse cx="42.3297" cy="57.1886" rx="1.84043" ry="2.72327" fill="#2D86D8"/>
<ellipse cx="62.5746" cy="57.1886" rx="1.84043" ry="2.72327" fill="#2D86D8"/>
<ellipse cx="82.8192" cy="57.1886" rx="1.84043" ry="2.72327" fill="#2D86D8"/>
<ellipse cx="103.064" cy="57.1886" rx="1.84043" ry="2.72327" fill="#2D86D8"/>
<ellipse cx="1.84043" cy="84.4213" rx="1.84043" ry="2.72327" fill="#2D86D8"/>
<ellipse cx="22.0851" cy="84.4213" rx="1.84043" ry="2.72327" fill="#2D86D8"/>
<ellipse cx="42.3297" cy="84.4213" rx="1.84043" ry="2.72327" fill="#2D86D8"/>
<ellipse cx="62.5746" cy="84.4213" rx="1.84043" ry="2.72327" fill="#2D86D8"/>
<ellipse cx="82.8192" cy="84.4213" rx="1.84043" ry="2.72327" fill="#2D86D8"/>
<ellipse cx="103.064" cy="84.4213" rx="1.84043" ry="2.72327" fill="#2D86D8"/>
<ellipse cx="121.468" cy="2.72327" rx="1.84043" ry="2.72327" fill="#2D86D8"/>
<ellipse cx="141.713" cy="2.72327" rx="1.84043" ry="2.72327" fill="#2D86D8"/>
<ellipse cx="161.957" cy="2.72327" rx="1.84043" ry="2.72327" fill="#2D86D8"/>
<ellipse cx="182.202" cy="2.72327" rx="1.84043" ry="2.72327" fill="#2D86D8"/>
<ellipse cx="202.447" cy="2.72327" rx="1.84043" ry="2.72327" fill="#2D86D8"/>
<ellipse cx="222.691" cy="2.72327" rx="1.84043" ry="2.72327" fill="#2D86D8"/>
<ellipse cx="121.468" cy="111.654" rx="1.84043" ry="2.72327" fill="#2D86D8"/>
<ellipse cx="141.713" cy="111.654" rx="1.84043" ry="2.72327" fill="#2D86D8"/>
<ellipse cx="161.957" cy="111.654" rx="1.84043" ry="2.72327" fill="#2D86D8"/>
<ellipse cx="182.202" cy="111.654" rx="1.84043" ry="2.72327" fill="#2D86D8"/>
<ellipse cx="202.447" cy="111.654" rx="1.84043" ry="2.72327" fill="#2D86D8"/>
<ellipse cx="222.691" cy="111.654" rx="1.84043" ry="2.72327" fill="#2D86D8"/>
<ellipse cx="121.468" cy="29.9559" rx="1.84043" ry="2.72327" fill="#2D86D8"/>
<ellipse cx="141.713" cy="29.9559" rx="1.84043" ry="2.72327" fill="#2D86D8"/>
<ellipse cx="161.957" cy="29.9559" rx="1.84043" ry="2.72327" fill="#2D86D8"/>
<ellipse cx="182.202" cy="29.9559" rx="1.84043" ry="2.72327" fill="#2D86D8"/>
<ellipse cx="202.447" cy="29.9559" rx="1.84043" ry="2.72327" fill="#2D86D8"/>
<ellipse cx="222.691" cy="29.9559" rx="1.84043" ry="2.72327" fill="#2D86D8"/>
<ellipse cx="121.468" cy="57.1886" rx="1.84043" ry="2.72327" fill="#2D86D8"/>
<ellipse cx="141.713" cy="57.1886" rx="1.84043" ry="2.72327" fill="#2D86D8"/>
<ellipse cx="161.957" cy="57.1886" rx="1.84043" ry="2.72327" fill="#2D86D8"/>
<ellipse cx="182.202" cy="57.1886" rx="1.84043" ry="2.72327" fill="#2D86D8"/>
<ellipse cx="202.447" cy="57.1886" rx="1.84043" ry="2.72327" fill="#2D86D8"/>
<ellipse cx="222.691" cy="57.1886" rx="1.84043" ry="2.72327" fill="#2D86D8"/>
<ellipse cx="121.468" cy="84.4213" rx="1.84043" ry="2.72327" fill="#2D86D8"/>
<ellipse cx="141.713" cy="84.4213" rx="1.84043" ry="2.72327" fill="#2D86D8"/>
<ellipse cx="161.957" cy="84.4213" rx="1.84043" ry="2.72327" fill="#2D86D8"/>
<ellipse cx="182.202" cy="84.4213" rx="1.84043" ry="2.72327" fill="#2D86D8"/>
<ellipse cx="202.447" cy="84.4213" rx="1.84043" ry="2.72327" fill="#2D86D8"/>
<ellipse cx="222.691" cy="84.4213" rx="1.84043" ry="2.72327" fill="#2D86D8"/>
<ellipse cx="1.84043" cy="137.525" rx="1.84043" ry="2.72327" fill="#2D86D8"/>
<ellipse cx="22.0851" cy="137.525" rx="1.84043" ry="2.72327" fill="#2D86D8"/>
<ellipse cx="42.3297" cy="137.525" rx="1.84043" ry="2.72327" fill="#2D86D8"/>
<ellipse cx="62.5746" cy="137.525" rx="1.84043" ry="2.72327" fill="#2D86D8"/>
<ellipse cx="82.8192" cy="137.525" rx="1.84043" ry="2.72327" fill="#2D86D8"/>
<ellipse cx="103.064" cy="137.525" rx="1.84043" ry="2.72327" fill="#2D86D8"/>
<ellipse cx="1.84043" cy="246.456" rx="1.84043" ry="2.72327" fill="#2D86D8"/>
<ellipse cx="22.0851" cy="246.456" rx="1.84043" ry="2.72327" fill="#2D86D8"/>
<ellipse cx="42.3297" cy="246.456" rx="1.84043" ry="2.72327" fill="#2D86D8"/>
<ellipse cx="62.5746" cy="246.456" rx="1.84043" ry="2.72327" fill="#2D86D8"/>
<ellipse cx="82.8192" cy="246.456" rx="1.84043" ry="2.72327" fill="#2D86D8"/>
<ellipse cx="103.064" cy="246.456" rx="1.84043" ry="2.72327" fill="#2D86D8"/>
<ellipse cx="1.84043" cy="164.758" rx="1.84043" ry="2.72327" fill="#2D86D8"/>
<ellipse cx="22.0851" cy="164.758" rx="1.84043" ry="2.72327" fill="#2D86D8"/>
<ellipse cx="42.3297" cy="164.758" rx="1.84043" ry="2.72327" fill="#2D86D8"/>
<ellipse cx="62.5746" cy="164.758" rx="1.84043" ry="2.72327" fill="#2D86D8"/>
<ellipse cx="82.8192" cy="164.758" rx="1.84043" ry="2.72327" fill="#2D86D8"/>
<ellipse cx="103.064" cy="164.758" rx="1.84043" ry="2.72327" fill="#2D86D8"/>
<ellipse cx="1.84043" cy="191.99" rx="1.84043" ry="2.72327" fill="#2D86D8"/>
<ellipse cx="22.0851" cy="191.99" rx="1.84043" ry="2.72327" fill="#2D86D8"/>
<ellipse cx="42.3297" cy="191.99" rx="1.84043" ry="2.72327" fill="#2D86D8"/>
<ellipse cx="62.5746" cy="191.99" rx="1.84043" ry="2.72327" fill="#2D86D8"/>
<ellipse cx="82.8192" cy="191.99" rx="1.84043" ry="2.72327" fill="#2D86D8"/>
<ellipse cx="103.064" cy="191.99" rx="1.84043" ry="2.72327" fill="#2D86D8"/>
<ellipse cx="1.84043" cy="219.223" rx="1.84043" ry="2.72327" fill="#2D86D8"/>
<ellipse cx="22.0851" cy="219.223" rx="1.84043" ry="2.72327" fill="#2D86D8"/>
<ellipse cx="42.3297" cy="219.223" rx="1.84043" ry="2.72327" fill="#2D86D8"/>
<ellipse cx="62.5746" cy="219.223" rx="1.84043" ry="2.72327" fill="#2D86D8"/>
<ellipse cx="82.8192" cy="219.223" rx="1.84043" ry="2.72327" fill="#2D86D8"/>
<ellipse cx="103.064" cy="219.223" rx="1.84043" ry="2.72327" fill="#2D86D8"/>
<ellipse cx="1.84043" cy="272.327" rx="1.84043" ry="2.72327" fill="#2D86D8"/>
<ellipse cx="22.0851" cy="272.327" rx="1.84043" ry="2.72327" fill="#2D86D8"/>
<ellipse cx="42.3297" cy="272.327" rx="1.84043" ry="2.72327" fill="#2D86D8"/>
<ellipse cx="62.5746" cy="272.327" rx="1.84043" ry="2.72327" fill="#2D86D8"/>
<ellipse cx="82.8192" cy="272.327" rx="1.84043" ry="2.72327" fill="#2D86D8"/>
<ellipse cx="103.064" cy="272.327" rx="1.84043" ry="2.72327" fill="#2D86D8"/>
<ellipse cx="1.84043" cy="381.258" rx="1.84043" ry="2.72327" fill="#2D86D8"/>
<ellipse cx="22.0851" cy="381.258" rx="1.84043" ry="2.72327" fill="#2D86D8"/>
<ellipse cx="42.3297" cy="381.258" rx="1.84043" ry="2.72327" fill="#2D86D8"/>
<ellipse cx="62.5746" cy="381.258" rx="1.84043" ry="2.72327" fill="#2D86D8"/>
<ellipse cx="82.8192" cy="381.258" rx="1.84043" ry="2.72327" fill="#2D86D8"/>
<ellipse cx="103.064" cy="381.258" rx="1.84043" ry="2.72327" fill="#2D86D8"/>
<ellipse cx="1.84043" cy="299.56" rx="1.84043" ry="2.72327" fill="#2D86D8"/>
<ellipse cx="22.0851" cy="299.56" rx="1.84043" ry="2.72327" fill="#2D86D8"/>
<ellipse cx="42.3297" cy="299.56" rx="1.84043" ry="2.72327" fill="#2D86D8"/>
<ellipse cx="62.5746" cy="299.56" rx="1.84043" ry="2.72327" fill="#2D86D8"/>
<ellipse cx="82.8192" cy="299.56" rx="1.84043" ry="2.72327" fill="#2D86D8"/>
<ellipse cx="103.064" cy="299.56" rx="1.84043" ry="2.72327" fill="#2D86D8"/>
<ellipse cx="1.84043" cy="326.792" rx="1.84043" ry="2.72327" fill="#2D86D8"/>
<ellipse cx="22.0851" cy="326.792" rx="1.84043" ry="2.72327" fill="#2D86D8"/>
<ellipse cx="42.3297" cy="326.792" rx="1.84043" ry="2.72327" fill="#2D86D8"/>
<ellipse cx="62.5746" cy="326.792" rx="1.84043" ry="2.72327" fill="#2D86D8"/>
<ellipse cx="82.8192" cy="326.792" rx="1.84043" ry="2.72327" fill="#2D86D8"/>
<ellipse cx="103.064" cy="326.792" rx="1.84043" ry="2.72327" fill="#2D86D8"/>
<ellipse cx="1.84043" cy="354.025" rx="1.84043" ry="2.72327" fill="#2D86D8"/>
<ellipse cx="22.0851" cy="354.025" rx="1.84043" ry="2.72327" fill="#2D86D8"/>
<ellipse cx="42.3297" cy="354.025" rx="1.84043" ry="2.72327" fill="#2D86D8"/>
<ellipse cx="62.5746" cy="354.025" rx="1.84043" ry="2.72327" fill="#2D86D8"/>
<ellipse cx="82.8192" cy="354.025" rx="1.84043" ry="2.72327" fill="#2D86D8"/>
<ellipse cx="103.064" cy="354.025" rx="1.84043" ry="2.72327" fill="#2D86D8"/>
<ellipse cx="242.936" cy="5.44641" rx="1.84043" ry="2.72327" fill="#2D86D8"/>
<ellipse cx="263.181" cy="5.44641" rx="1.84043" ry="2.72327" fill="#2D86D8"/>
<ellipse cx="283.425" cy="5.44641" rx="1.84043" ry="2.72327" fill="#2D86D8"/>
<ellipse cx="303.67" cy="5.44641" rx="1.84043" ry="2.72327" fill="#2D86D8"/>
<ellipse cx="323.915" cy="5.44641" rx="1.84043" ry="2.72327" fill="#2D86D8"/>
<ellipse cx="344.16" cy="5.44641" rx="1.84043" ry="2.72327" fill="#2D86D8"/>
<ellipse cx="242.936" cy="114.377" rx="1.84043" ry="2.72327" fill="#2D86D8"/>
<ellipse cx="263.181" cy="114.377" rx="1.84043" ry="2.72327" fill="#2D86D8"/>
<ellipse cx="283.425" cy="114.377" rx="1.84043" ry="2.72327" fill="#2D86D8"/>
<ellipse cx="303.67" cy="114.377" rx="1.84043" ry="2.72327" fill="#2D86D8"/>
<ellipse cx="323.915" cy="114.377" rx="1.84043" ry="2.72327" fill="#2D86D8"/>
<ellipse cx="344.16" cy="114.377" rx="1.84043" ry="2.72327" fill="#2D86D8"/>
<ellipse cx="242.936" cy="32.6791" rx="1.84043" ry="2.72327" fill="#2D86D8"/>
<ellipse cx="263.181" cy="32.6791" rx="1.84043" ry="2.72327" fill="#2D86D8"/>
<ellipse cx="283.425" cy="32.6791" rx="1.84043" ry="2.72327" fill="#2D86D8"/>
<ellipse cx="303.67" cy="32.6791" rx="1.84043" ry="2.72327" fill="#2D86D8"/>
<ellipse cx="323.915" cy="32.6791" rx="1.84043" ry="2.72327" fill="#2D86D8"/>
<ellipse cx="344.16" cy="32.6791" rx="1.84043" ry="2.72327" fill="#2D86D8"/>
<ellipse cx="242.936" cy="59.912" rx="1.84043" ry="2.72327" fill="#2D86D8"/>
<ellipse cx="263.181" cy="59.912" rx="1.84043" ry="2.72327" fill="#2D86D8"/>
<ellipse cx="283.425" cy="59.912" rx="1.84043" ry="2.72327" fill="#2D86D8"/>
<ellipse cx="303.67" cy="59.912" rx="1.84043" ry="2.72327" fill="#2D86D8"/>
<ellipse cx="323.915" cy="59.912" rx="1.84043" ry="2.72327" fill="#2D86D8"/>
<ellipse cx="344.16" cy="59.912" rx="1.84043" ry="2.72327" fill="#2D86D8"/>
<ellipse cx="242.936" cy="87.1447" rx="1.84043" ry="2.72327" fill="#2D86D8"/>
<ellipse cx="263.181" cy="87.1447" rx="1.84043" ry="2.72327" fill="#2D86D8"/>
<ellipse cx="283.425" cy="87.1447" rx="1.84043" ry="2.72327" fill="#2D86D8"/>
<ellipse cx="303.67" cy="87.1447" rx="1.84043" ry="2.72327" fill="#2D86D8"/>
<ellipse cx="323.915" cy="87.1447" rx="1.84043" ry="2.72327" fill="#2D86D8"/>
<ellipse cx="344.16" cy="87.1447" rx="1.84043" ry="2.72327" fill="#2D86D8"/>
<ellipse cx="121.468" cy="140.248" rx="1.84043" ry="2.72327" fill="#2D86D8"/>
<ellipse cx="141.713" cy="140.248" rx="1.84043" ry="2.72327" fill="#2D86D8"/>
<ellipse cx="161.957" cy="140.248" rx="1.84043" ry="2.72327" fill="#2D86D8"/>
<ellipse cx="182.202" cy="140.248" rx="1.84043" ry="2.72327" fill="#2D86D8"/>
<ellipse cx="202.447" cy="140.248" rx="1.84043" ry="2.72327" fill="#2D86D8"/>
<ellipse cx="222.691" cy="140.248" rx="1.84043" ry="2.72327" fill="#2D86D8"/>
<ellipse cx="121.468" cy="249.179" rx="1.84043" ry="2.72327" fill="#2D86D8"/>
<ellipse cx="141.713" cy="249.179" rx="1.84043" ry="2.72327" fill="#2D86D8"/>
<ellipse cx="161.957" cy="249.179" rx="1.84043" ry="2.72327" fill="#2D86D8"/>
<ellipse cx="182.202" cy="249.179" rx="1.84043" ry="2.72327" fill="#2D86D8"/>
<ellipse cx="202.447" cy="249.179" rx="1.84043" ry="2.72327" fill="#2D86D8"/>
<ellipse cx="222.691" cy="249.179" rx="1.84043" ry="2.72327" fill="#2D86D8"/>
<ellipse cx="121.468" cy="167.481" rx="1.84043" ry="2.72327" fill="#2D86D8"/>
<ellipse cx="141.713" cy="167.481" rx="1.84043" ry="2.72327" fill="#2D86D8"/>
<ellipse cx="161.957" cy="167.481" rx="1.84043" ry="2.72327" fill="#2D86D8"/>
<ellipse cx="182.202" cy="167.481" rx="1.84043" ry="2.72327" fill="#2D86D8"/>
<ellipse cx="202.447" cy="167.481" rx="1.84043" ry="2.72327" fill="#2D86D8"/>
<ellipse cx="222.691" cy="167.481" rx="1.84043" ry="2.72327" fill="#2D86D8"/>
<ellipse cx="121.468" cy="194.714" rx="1.84043" ry="2.72327" fill="#2D86D8"/>
<ellipse cx="141.713" cy="194.714" rx="1.84043" ry="2.72327" fill="#2D86D8"/>
<ellipse cx="161.957" cy="194.714" rx="1.84043" ry="2.72327" fill="#2D86D8"/>
<ellipse cx="182.202" cy="194.714" rx="1.84043" ry="2.72327" fill="#2D86D8"/>
<ellipse cx="202.447" cy="194.714" rx="1.84043" ry="2.72327" fill="#2D86D8"/>
<ellipse cx="222.691" cy="194.714" rx="1.84043" ry="2.72327" fill="#2D86D8"/>
<ellipse cx="121.468" cy="221.947" rx="1.84043" ry="2.72327" fill="#2D86D8"/>
<ellipse cx="141.713" cy="221.947" rx="1.84043" ry="2.72327" fill="#2D86D8"/>
<ellipse cx="161.957" cy="221.947" rx="1.84043" ry="2.72327" fill="#2D86D8"/>
<ellipse cx="182.202" cy="221.947" rx="1.84043" ry="2.72327" fill="#2D86D8"/>
<ellipse cx="202.447" cy="221.947" rx="1.84043" ry="2.72327" fill="#2D86D8"/>
<ellipse cx="222.691" cy="221.947" rx="1.84043" ry="2.72327" fill="#2D86D8"/>
<ellipse cx="242.936" cy="142.972" rx="1.84043" ry="2.72327" fill="#2D86D8"/>
<ellipse cx="263.181" cy="142.972" rx="1.84043" ry="2.72327" fill="#2D86D8"/>
<ellipse cx="283.425" cy="142.972" rx="1.84043" ry="2.72327" fill="#2D86D8"/>
<ellipse cx="303.67" cy="142.972" rx="1.84043" ry="2.72327" fill="#2D86D8"/>
<ellipse cx="323.915" cy="142.972" rx="1.84043" ry="2.72327" fill="#2D86D8"/>
<ellipse cx="344.16" cy="142.972" rx="1.84043" ry="2.72327" fill="#2D86D8"/>
<ellipse cx="242.936" cy="251.902" rx="1.84043" ry="2.72327" fill="#2D86D8"/>
<ellipse cx="263.181" cy="251.902" rx="1.84043" ry="2.72327" fill="#2D86D8"/>
<ellipse cx="283.425" cy="251.902" rx="1.84043" ry="2.72327" fill="#2D86D8"/>
<ellipse cx="303.67" cy="251.902" rx="1.84043" ry="2.72327" fill="#2D86D8"/>
<ellipse cx="323.915" cy="251.902" rx="1.84043" ry="2.72327" fill="#2D86D8"/>
<ellipse cx="344.16" cy="251.902" rx="1.84043" ry="2.72327" fill="#2D86D8"/>
<ellipse cx="242.936" cy="170.204" rx="1.84043" ry="2.72327" fill="#2D86D8"/>
<ellipse cx="263.181" cy="170.204" rx="1.84043" ry="2.72327" fill="#2D86D8"/>
<ellipse cx="283.425" cy="170.204" rx="1.84043" ry="2.72327" fill="#2D86D8"/>
<ellipse cx="303.67" cy="170.204" rx="1.84043" ry="2.72327" fill="#2D86D8"/>
<ellipse cx="323.915" cy="170.204" rx="1.84043" ry="2.72327" fill="#2D86D8"/>
<ellipse cx="344.16" cy="170.204" rx="1.84043" ry="2.72327" fill="#2D86D8"/>
<ellipse cx="242.936" cy="197.437" rx="1.84043" ry="2.72327" fill="#2D86D8"/>
<ellipse cx="263.181" cy="197.437" rx="1.84043" ry="2.72327" fill="#2D86D8"/>
<ellipse cx="283.425" cy="197.437" rx="1.84043" ry="2.72327" fill="#2D86D8"/>
<ellipse cx="303.67" cy="197.437" rx="1.84043" ry="2.72327" fill="#2D86D8"/>
<ellipse cx="323.915" cy="197.437" rx="1.84043" ry="2.72327" fill="#2D86D8"/>
<ellipse cx="344.16" cy="197.437" rx="1.84043" ry="2.72327" fill="#2D86D8"/>
<ellipse cx="242.936" cy="224.67" rx="1.84043" ry="2.72327" fill="#2D86D8"/>
<ellipse cx="263.181" cy="224.67" rx="1.84043" ry="2.72327" fill="#2D86D8"/>
<ellipse cx="283.425" cy="224.67" rx="1.84043" ry="2.72327" fill="#2D86D8"/>
<ellipse cx="303.67" cy="224.67" rx="1.84043" ry="2.72327" fill="#2D86D8"/>
<ellipse cx="323.915" cy="224.67" rx="1.84043" ry="2.72327" fill="#2D86D8"/>
<ellipse cx="344.16" cy="224.67" rx="1.84043" ry="2.72327" fill="#2D86D8"/>
<ellipse cx="121.468" cy="272.327" rx="1.84043" ry="2.72327" fill="#2D86D8"/>
<ellipse cx="141.713" cy="272.327" rx="1.84043" ry="2.72327" fill="#2D86D8"/>
<ellipse cx="161.957" cy="272.327" rx="1.84043" ry="2.72327" fill="#2D86D8"/>
<ellipse cx="182.202" cy="272.327" rx="1.84043" ry="2.72327" fill="#2D86D8"/>
<ellipse cx="202.447" cy="272.327" rx="1.84043" ry="2.72327" fill="#2D86D8"/>
<ellipse cx="222.691" cy="272.327" rx="1.84043" ry="2.72327" fill="#2D86D8"/>
<ellipse cx="121.468" cy="381.258" rx="1.84043" ry="2.72327" fill="#2D86D8"/>
<ellipse cx="141.713" cy="381.258" rx="1.84043" ry="2.72327" fill="#2D86D8"/>
<ellipse cx="161.957" cy="381.258" rx="1.84043" ry="2.72327" fill="#2D86D8"/>
<ellipse cx="182.202" cy="381.258" rx="1.84043" ry="2.72327" fill="#2D86D8"/>
<ellipse cx="202.447" cy="381.258" rx="1.84043" ry="2.72327" fill="#2D86D8"/>
<ellipse cx="222.691" cy="381.258" rx="1.84043" ry="2.72327" fill="#2D86D8"/>
<ellipse cx="121.468" cy="299.56" rx="1.84043" ry="2.72327" fill="#2D86D8"/>
<ellipse cx="141.713" cy="299.56" rx="1.84043" ry="2.72327" fill="#2D86D8"/>
<ellipse cx="161.957" cy="299.56" rx="1.84043" ry="2.72327" fill="#2D86D8"/>
<ellipse cx="182.202" cy="299.56" rx="1.84043" ry="2.72327" fill="#2D86D8"/>
<ellipse cx="202.447" cy="299.56" rx="1.84043" ry="2.72327" fill="#2D86D8"/>
<ellipse cx="222.691" cy="299.56" rx="1.84043" ry="2.72327" fill="#2D86D8"/>
<ellipse cx="121.468" cy="326.792" rx="1.84043" ry="2.72327" fill="#2D86D8"/>
<ellipse cx="141.713" cy="326.792" rx="1.84043" ry="2.72327" fill="#2D86D8"/>
<ellipse cx="161.957" cy="326.792" rx="1.84043" ry="2.72327" fill="#2D86D8"/>
<ellipse cx="182.202" cy="326.792" rx="1.84043" ry="2.72327" fill="#2D86D8"/>
<ellipse cx="202.447" cy="326.792" rx="1.84043" ry="2.72327" fill="#2D86D8"/>
<ellipse cx="222.691" cy="326.792" rx="1.84043" ry="2.72327" fill="#2D86D8"/>
<ellipse cx="121.468" cy="354.025" rx="1.84043" ry="2.72327" fill="#2D86D8"/>
<ellipse cx="141.713" cy="354.025" rx="1.84043" ry="2.72327" fill="#2D86D8"/>
<ellipse cx="161.957" cy="354.025" rx="1.84043" ry="2.72327" fill="#2D86D8"/>
<ellipse cx="182.202" cy="354.025" rx="1.84043" ry="2.72327" fill="#2D86D8"/>
<ellipse cx="202.447" cy="354.025" rx="1.84043" ry="2.72327" fill="#2D86D8"/>
<ellipse cx="222.691" cy="354.025" rx="1.84043" ry="2.72327" fill="#2D86D8"/>
<ellipse cx="242.936" cy="275.05" rx="1.84043" ry="2.72327" fill="#2D86D8"/>
<ellipse cx="263.181" cy="275.05" rx="1.84043" ry="2.72327" fill="#2D86D8"/>
<ellipse cx="283.425" cy="275.05" rx="1.84043" ry="2.72327" fill="#2D86D8"/>
<ellipse cx="303.67" cy="275.05" rx="1.84043" ry="2.72327" fill="#2D86D8"/>
<ellipse cx="323.915" cy="275.05" rx="1.84043" ry="2.72327" fill="#2D86D8"/>
<ellipse cx="344.16" cy="275.05" rx="1.84043" ry="2.72327" fill="#2D86D8"/>
<ellipse cx="242.936" cy="383.981" rx="1.84043" ry="2.72327" fill="#2D86D8"/>
<ellipse cx="263.181" cy="383.981" rx="1.84043" ry="2.72327" fill="#2D86D8"/>
<ellipse cx="283.425" cy="383.981" rx="1.84043" ry="2.72327" fill="#2D86D8"/>
<ellipse cx="303.67" cy="383.981" rx="1.84043" ry="2.72327" fill="#2D86D8"/>
<ellipse cx="323.915" cy="383.981" rx="1.84043" ry="2.72327" fill="#2D86D8"/>
<ellipse cx="344.16" cy="383.981" rx="1.84043" ry="2.72327" fill="#2D86D8"/>
<ellipse cx="242.936" cy="302.283" rx="1.84043" ry="2.72327" fill="#2D86D8"/>
<ellipse cx="263.181" cy="302.283" rx="1.84043" ry="2.72327" fill="#2D86D8"/>
<ellipse cx="283.425" cy="302.283" rx="1.84043" ry="2.72327" fill="#2D86D8"/>
<ellipse cx="303.67" cy="302.283" rx="1.84043" ry="2.72327" fill="#2D86D8"/>
<ellipse cx="323.915" cy="302.283" rx="1.84043" ry="2.72327" fill="#2D86D8"/>
<ellipse cx="344.16" cy="302.283" rx="1.84043" ry="2.72327" fill="#2D86D8"/>
<ellipse cx="242.936" cy="329.516" rx="1.84043" ry="2.72327" fill="#2D86D8"/>
<ellipse cx="263.181" cy="329.516" rx="1.84043" ry="2.72327" fill="#2D86D8"/>
<ellipse cx="283.425" cy="329.516" rx="1.84043" ry="2.72327" fill="#2D86D8"/>
<ellipse cx="303.67" cy="329.516" rx="1.84043" ry="2.72327" fill="#2D86D8"/>
<ellipse cx="323.915" cy="329.516" rx="1.84043" ry="2.72327" fill="#2D86D8"/>
<ellipse cx="344.16" cy="329.516" rx="1.84043" ry="2.72327" fill="#2D86D8"/>
<ellipse cx="242.936" cy="356.748" rx="1.84043" ry="2.72327" fill="#2D86D8"/>
<ellipse cx="263.181" cy="356.748" rx="1.84043" ry="2.72327" fill="#2D86D8"/>
<ellipse cx="283.425" cy="356.748" rx="1.84043" ry="2.72327" fill="#2D86D8"/>
<ellipse cx="303.67" cy="356.748" rx="1.84043" ry="2.72327" fill="#2D86D8"/>
<ellipse cx="323.915" cy="356.748" rx="1.84043" ry="2.72327" fill="#2D86D8"/>
<ellipse cx="344.16" cy="356.748" rx="1.84043" ry="2.72327" fill="#2D86D8"/>
</svg>
